<svg xmlns="http://www.w3.org/2000/svg" width="512.438" height="93.5" viewBox="0 0 135.582 24.739"><g aria-label="LOADING" style="line-height:1.25" font-weight="400" font-size="33.867" font-family="Roboto" letter-spacing="0" word-spacing="0" fill="#fff" stroke-width=".265"><path d="M3.192 21.812h11.41v2.596H0V.33h3.192zM35.719 13.146q0 3.54-1.19 6.185-1.192 2.63-3.374 4.018-2.183 1.39-5.094 1.39-2.844 0-5.043-1.39-2.2-1.405-3.423-3.985-1.207-2.596-1.24-6.003v-1.736q0-3.473 1.207-6.135t3.406-4.068Q23.184 0 26.028 0q2.894 0 5.094 1.406 2.215 1.389 3.406 4.051 1.19 2.646 1.19 6.168zm-3.159-1.554q0-4.283-1.72-6.565-1.72-2.298-4.812-2.298-3.01 0-4.746 2.298-1.72 2.282-1.769 6.35v1.77q0 4.15 1.736 6.531 1.753 2.365 4.812 2.365 3.076 0 4.763-2.232 1.687-2.25 1.736-6.433zM53.446 18.124H43.359l-2.266 6.284H37.82L47.013.33h2.778l9.211 24.077h-3.258zm-9.128-2.613h8.185l-4.1-11.261zM62.243 24.408V.33h6.797q3.142 0 5.556 1.389t3.72 3.952q1.324 2.563 1.34 5.887v1.538q0 3.406-1.323 5.97-1.306 2.563-3.754 3.935-2.43 1.373-5.672 1.406zm3.175-21.465v18.869h3.34q3.672 0 5.706-2.282 2.05-2.282 2.05-6.5v-1.405q0-4.1-1.935-6.366-1.918-2.282-5.457-2.316zM87.875 24.408H84.7V.33h3.175zM112.167 24.408h-3.192L96.854 5.854v18.554h-3.192V.33h3.192l12.154 18.636V.331h3.159zM135.582 21.25q-1.223 1.752-3.423 2.629-2.182.86-5.093.86-2.943 0-5.225-1.373-2.282-1.389-3.54-3.936-1.24-2.546-1.272-5.903v-2.1q0-5.44 2.53-8.434Q122.105 0 126.702 0q3.77 0 6.07 1.935 2.298 1.918 2.81 5.457h-3.175q-.893-4.78-5.688-4.78-3.192 0-4.845 2.25-1.637 2.232-1.654 6.482v1.968q0 4.051 1.852 6.45 1.852 2.38 5.01 2.38 1.787 0 3.126-.397 1.34-.396 2.216-1.339v-5.407h-5.573v-2.58h8.731z" style="-inkscape-font-specification:'Roboto, Normal';font-variant-ligatures:normal;font-variant-caps:normal;font-variant-numeric:normal;font-feature-settings:normal;text-align:start"/></g></svg>